<svg width="31" height="31" viewBox="0 0 31 31" fill="none" xmlns="http://www.w3.org/2000/svg">
<g clip-path="url(#clip0_5_48)">
<path d="M29.875 8.63372C29.7051 8.02776 29.3742 7.47915 28.9175 7.04622C28.4479 6.59998 27.8722 6.28077 27.245 6.11872C24.8975 5.49997 15.4925 5.49997 15.4925 5.49997C11.5717 5.45536 7.65178 5.65157 3.75499 6.08747C3.12773 6.26149 2.5532 6.58783 2.08249 7.03747C1.61999 7.48247 1.28499 8.03122 1.10999 8.63247C0.68961 10.8972 0.485358 13.1967 0.499993 15.5C0.484993 17.8012 0.688743 20.1 1.10999 22.3675C1.28124 22.9662 1.61499 23.5125 2.07874 23.9537C2.54249 24.395 3.11999 24.7137 3.75499 24.8825C6.13374 25.5 15.4925 25.5 15.4925 25.5C19.4183 25.5446 23.3432 25.3484 27.245 24.9125C27.8722 24.7504 28.4479 24.4312 28.9175 23.985C29.3741 23.5521 29.7046 23.0034 29.8737 22.3975C30.3051 20.1337 30.5148 17.8332 30.5 15.5287C30.5324 13.2145 30.323 10.9032 29.875 8.63247V8.63372ZM12.5025 19.78V11.2212L20.3275 15.5012L12.5025 19.78Z" fill="white"/>
</g>
<defs>
<clipPath id="clip0_5_48">
<rect width="30" height="30" fill="white" transform="translate(0.5 0.5)"/>
</clipPath>
</defs>
</svg>
