<svg width="30" height="27" viewBox="0 0 30 27" fill="none" xmlns="http://www.w3.org/2000/svg">
<path fill-rule="evenodd" clip-rule="evenodd" d="M15 0C6.7125 0 0 5.99458 0 13.3957C0 19.3233 4.29375 24.33 10.2562 26.1049C11.0062 26.2221 11.2875 25.8202 11.2875 25.4686C11.2875 25.1505 11.2688 24.0955 11.2688 22.9737C7.5 23.5932 6.525 22.1532 6.225 21.3997C6.05625 21.0145 5.325 19.8257 4.6875 19.5075C4.1625 19.2563 3.4125 18.6368 4.66875 18.62C5.85 18.6033 6.69375 19.5912 6.975 19.9931C8.325 22.0192 10.4812 21.4499 11.3437 21.0983C11.475 20.2275 11.8688 19.6415 12.3 19.3066C8.9625 18.9717 5.475 17.8163 5.475 12.6924C5.475 11.2357 6.05625 10.03 7.0125 9.09234C6.8625 8.75745 6.3375 7.38439 7.1625 5.54248C7.1625 5.54248 8.41875 5.19084 11.2875 6.91554C12.4875 6.61413 13.7625 6.46343 15.0375 6.46343C16.3125 6.46343 17.5875 6.61413 18.7875 6.91554C21.6562 5.1741 22.9125 5.54248 22.9125 5.54248C23.7375 7.38439 23.2125 8.75745 23.0625 9.09234C24.0188 10.03 24.6 11.2189 24.6 12.6924C24.6 17.833 21.0938 18.9717 17.7562 19.3066C18.3 19.7252 18.7688 20.5289 18.7688 21.7848C18.7688 23.5765 18.75 25.0165 18.75 25.4686C18.75 25.8202 19.0312 26.2389 19.7812 26.1049C22.759 25.2071 25.3465 23.498 27.1796 21.2181C29.0127 18.9382 29.9991 16.2024 30 13.3957C30 5.99458 23.2875 0 15 0Z" fill="white"/>
</svg>
