<svg width="30" height="27" viewBox="0 0 30 27" fill="none" xmlns="http://www.w3.org/2000/svg">
<path fill-rule="evenodd" clip-rule="evenodd" d="M3.7099e-07 2.2383C3.7099e-07 1.64467 0.264063 1.07535 0.734097 0.655585C1.20413 0.235823 1.84163 2.98397e-06 2.50636 2.98397e-06H27.4909C27.8203 -0.000477497 28.1466 0.0570722 28.4511 0.169357C28.7556 0.281642 29.0323 0.446457 29.2653 0.654366C29.4984 0.862275 29.6833 1.10919 29.8093 1.38099C29.9354 1.65278 30.0002 1.94411 30 2.2383V24.5506C30.0004 24.8449 29.9357 25.1363 29.8099 25.4082C29.684 25.6802 29.4993 25.9273 29.2664 26.1354C29.0335 26.3435 28.7569 26.5086 28.4525 26.6211C28.148 26.7337 27.8218 26.7915 27.4923 26.7914H2.50636C2.17711 26.7914 1.85108 26.7334 1.5469 26.6209C1.24273 26.5083 0.96637 26.3433 0.733615 26.1354C0.50086 25.9274 0.316271 25.6805 0.190394 25.4088C0.0645181 25.1371 -0.000178767 24.8459 3.7099e-07 24.5519V2.2383ZM11.8745 10.2148H15.9368V12.0366C16.5232 10.9893 18.0232 10.0468 20.2773 10.0468C24.5986 10.0468 25.6227 12.1328 25.6227 15.9604V23.0503H21.2495V16.8323C21.2495 14.6525 20.6632 13.4225 19.1741 13.4225C17.1082 13.4225 16.2491 14.7487 16.2491 16.8323V23.0503H11.8745V10.2148ZM4.37455 22.8835H8.74909V10.0468H4.37455V22.8823V22.8835ZM9.375 5.86001C9.38325 6.1945 9.3166 6.5271 9.17896 6.83828C9.04133 7.14946 8.83548 7.43295 8.5735 7.67212C8.31152 7.91129 7.99868 8.10132 7.65335 8.23105C7.30802 8.36079 6.93714 8.42762 6.5625 8.42762C6.18786 8.42762 5.81698 8.36079 5.47165 8.23105C5.12632 8.10132 4.81348 7.91129 4.5515 7.67212C4.28952 7.43295 4.08367 7.14946 3.94604 6.83828C3.8084 6.5271 3.74175 6.1945 3.75 5.86001C3.76619 5.20344 4.06962 4.57864 4.5953 4.1194C5.12098 3.66017 5.82712 3.40302 6.5625 3.40302C7.29788 3.40302 8.00402 3.66017 8.5297 4.1194C9.05538 4.57864 9.35881 5.20344 9.375 5.86001V5.86001Z" fill="white"/>
</svg>
