<svg width="215" height="39" viewBox="0 0 215 39" fill="none" xmlns="http://www.w3.org/2000/svg">
<g filter="url(#filter0_d_3_15)">
<path d="M21.213 1.53792L23.2525 4.84633L9.10383 29.532H5.50018L21.213 1.53792Z" fill="black" stroke="black" stroke-linecap="round"/>
<path d="M27.9058 1.3824L43.9664 29.6876H30.7101V24.4421H35.1075L27.9058 11.9085L20.5128 24.4421H24.9741V29.6876H11.7815L28.0617 1.3824" fill="black"/>
<path d="M27.9058 1.3824L43.9664 29.6876H30.7101V24.4421H35.1075L27.9058 11.9085L20.5128 24.4421H24.9741V29.6876H11.7815L28.0617 1.3824" stroke="black" stroke-linecap="round"/>
<path d="M36.9656 9.50784H41.761L49.5466 22.6586V9.50784H53.2984V28.2624H48.5593L40.7173 15.0272V28.2624H36.9656V9.50784ZM58.792 7.7056H63.3336V11.3664H58.792V7.7056ZM56.5917 24.855H59.2997V17.1674H56.5917V13.76H63.2771V24.855H65.7031V28.2624H56.5917V24.855ZM74.8334 28.6848C72.4262 28.6848 70.5551 28.0465 69.2199 26.7699C67.9035 25.4934 67.2453 23.6911 67.2453 21.3632C67.2453 19.7862 67.5556 18.3971 68.1762 17.1955C68.7968 15.9753 69.6713 15.0365 70.7996 14.3795C71.928 13.7037 73.2349 13.3658 74.7206 13.3658C75.4163 13.3658 76.1404 13.4502 76.8927 13.6192C77.6637 13.7693 78.256 13.9478 78.6698 14.1542L77.9082 17.5053C77.4756 17.2988 76.996 17.1392 76.4695 17.0266C75.9618 16.8951 75.4822 16.8294 75.0309 16.8294C73.8649 16.8294 72.9246 17.2237 72.21 18.0122C71.5142 18.8006 71.1663 19.8426 71.1663 21.1379C71.1663 22.4521 71.5235 23.4659 72.2382 24.1792C72.9717 24.8925 74.0059 25.2493 75.3412 25.2493C76.225 25.2493 77.1747 25.0803 78.1903 24.7424L78.7826 27.9526C77.5602 28.4407 76.2439 28.6848 74.8334 28.6848ZM88.1926 28.6848C86.7258 28.6848 85.4282 28.3657 84.2999 27.7274C83.1902 27.089 82.3252 26.1974 81.7047 25.0522C81.0841 23.8883 80.7738 22.5459 80.7738 21.0253C80.7738 19.5046 81.0746 18.1718 81.6765 17.0266C82.297 15.8627 83.162 14.9615 84.2716 14.3232C85.4 13.6849 86.6976 13.3658 88.1644 13.3658C89.6313 13.3658 90.9194 13.6849 92.029 14.3232C93.1574 14.9427 94.0223 15.825 94.6242 16.9702C95.2448 18.1155 95.5551 19.439 95.5551 20.9408C95.5551 22.4614 95.2448 23.8131 94.6242 24.9958C94.0223 26.1597 93.1574 27.0703 92.029 27.7274C90.9194 28.3657 89.6406 28.6848 88.1926 28.6848ZM88.1644 25.2493C89.1799 25.2493 89.9885 24.8644 90.5904 24.0947C91.211 23.3062 91.5213 22.2737 91.5213 20.9971C91.5213 19.7206 91.211 18.7068 90.5904 17.9558C89.9885 17.1862 89.1799 16.8013 88.1644 16.8013C87.1489 16.8013 86.3309 17.1862 85.7103 17.9558C85.1084 18.7068 84.8076 19.7206 84.8076 20.9971C84.8076 22.2737 85.1084 23.3062 85.7103 24.0947C86.3309 24.8644 87.1489 25.2493 88.1644 25.2493ZM97.3035 24.855H99.8705V11.0848H97.4445V7.7056H103.848V24.855H106.415V28.2624H97.3035V24.855ZM112.899 28.6848C111.394 28.6848 110.2 28.0465 109.317 26.7699C108.432 25.4934 107.991 23.7568 107.991 21.5603C107.991 18.8945 108.668 16.8669 110.022 15.4778C111.376 14.0698 113.322 13.3658 115.861 13.3658C117.29 13.3658 118.964 13.591 120.882 14.0416V28.2624H117.102L117.187 25.9533H117.074C116.584 26.8356 115.983 27.5114 115.269 27.9808C114.573 28.4502 113.783 28.6848 112.899 28.6848ZM113.746 25.2211C114.328 25.2211 114.902 24.9114 115.466 24.2918C116.03 23.6723 116.556 22.8463 117.046 21.8138V17.0829C116.443 16.9139 115.842 16.8294 115.241 16.8294C114.112 16.8294 113.256 17.2143 112.674 17.984C112.109 18.7537 111.827 19.8895 111.827 21.3914C111.827 22.5741 111.997 23.5127 112.335 24.2074C112.674 24.8832 113.143 25.2211 113.746 25.2211ZM128.601 28.6848C127.679 28.6848 126.786 28.591 125.921 28.4032C125.075 28.2154 124.351 27.962 123.749 27.6429L124.116 24.2637C124.755 24.6579 125.46 24.977 126.232 25.2211C127.002 25.4652 127.727 25.5872 128.404 25.5872C129.042 25.5872 129.578 25.4746 130.012 25.2493C130.444 25.0052 130.66 24.6579 130.66 24.2074C130.66 23.8506 130.509 23.5785 130.209 23.3907C129.908 23.1843 129.335 22.9308 128.488 22.6304L127.727 22.3488C126.918 22.0484 126.26 21.7668 125.752 21.504C125.244 21.2224 124.783 20.8 124.37 20.2368C123.956 19.6736 123.749 18.9321 123.749 18.0122C123.749 16.5478 124.294 15.4121 125.385 14.6048C126.495 13.7788 127.933 13.3658 129.701 13.3658C131.093 13.3658 132.559 13.638 134.102 14.1824L133.566 17.5334C133.02 17.2143 132.399 16.9609 131.704 16.7731C131.027 16.5666 130.387 16.4634 129.786 16.4634C129.165 16.4634 128.667 16.5666 128.291 16.7731C127.933 16.9796 127.755 17.28 127.755 17.6742C127.755 18.0497 127.905 18.3313 128.206 18.519C128.506 18.7068 129.014 18.9226 129.73 19.1667C130.294 19.3732 130.622 19.4953 130.717 19.5328C131.507 19.8519 132.164 20.1617 132.691 20.4621C133.217 20.7625 133.679 21.2131 134.074 21.8138C134.469 22.3958 134.666 23.1466 134.666 24.0666C134.666 25.606 134.111 26.7606 133.002 27.5302C131.891 28.2999 130.424 28.6848 128.601 28.6848ZM147.528 15.0272L146.343 28.2624H142.704L144.481 9.50784H149.559L154.354 22.9683L159.009 9.50784H164.086L165.807 28.2624H162.14L160.842 15.0835L155.878 28.4595L152.521 28.7693L147.528 15.0272ZM175.825 28.6848C173.473 28.6848 171.622 28.009 170.268 26.6573C168.932 25.3056 168.265 23.4282 168.265 21.0253C168.265 19.4671 168.556 18.1155 169.14 16.9702C169.722 15.8063 170.54 14.9146 171.594 14.295C172.666 13.6755 173.916 13.3658 175.345 13.3658C177.451 13.3658 179.069 14.0416 180.197 15.3933C181.326 16.745 181.89 18.6973 181.89 21.2506C181.89 21.6823 181.88 22.0015 181.862 22.208H172.271C172.458 23.2029 172.891 23.9633 173.568 24.489C174.245 24.9958 175.157 25.2493 176.304 25.2493C176.999 25.2493 177.724 25.1648 178.477 24.9958C179.228 24.8081 179.887 24.5641 180.451 24.2637L181.1 27.4458C180.347 27.84 179.51 28.1404 178.589 28.3469C177.687 28.5722 176.765 28.6848 175.825 28.6848ZM178.082 19.223C178.025 18.4157 177.743 17.7775 177.235 17.3082C176.728 16.8201 176.051 16.576 175.204 16.576C174.395 16.576 173.727 16.8106 173.202 17.28C172.694 17.7494 172.373 18.3971 172.242 19.223H178.082ZM183.827 25.6435L190.795 17.1674H184.307V13.76H195.647V16.3507L188.707 24.855H195.647V28.2342H183.827V25.6435ZM202.346 28.6848C200.841 28.6848 199.647 28.0465 198.764 26.7699C197.879 25.4934 197.438 23.7568 197.438 21.5603C197.438 18.8945 198.115 16.8669 199.469 15.4778C200.823 14.0698 202.769 13.3658 205.308 13.3658C206.736 13.3658 208.411 13.591 210.329 14.0416V28.2624H206.549L206.634 25.9533H206.521C206.031 26.8356 205.43 27.5114 204.716 27.9808C204.019 28.4502 203.23 28.6848 202.346 28.6848ZM203.192 25.2211C203.775 25.2211 204.349 24.9114 204.913 24.2918C205.477 23.6723 206.003 22.8463 206.493 21.8138V17.0829C205.89 16.9139 205.289 16.8294 204.687 16.8294C203.559 16.8294 202.703 17.2143 202.12 17.984C201.556 18.7537 201.274 19.8895 201.274 21.3914C201.274 22.5741 201.443 23.5127 201.782 24.2074C202.12 24.8832 202.59 25.2211 203.192 25.2211Z" fill="white"/>
</g>
<defs>
<filter id="filter0_d_3_15" x="0" y="0" width="217" height="40" filterUnits="userSpaceOnUse" color-interpolation-filters="sRGB">
<feFlood flood-opacity="0" result="BackgroundImageFix"/>
<feColorMatrix in="SourceAlpha" type="matrix" values="0 0 0 0 0 0 0 0 0 0 0 0 0 0 0 0 0 0 127 0" result="hardAlpha"/>
<feOffset dy="4"/>
<feGaussianBlur stdDeviation="2"/>
<feColorMatrix type="matrix" values="0 0 0 0 0 0 0 0 0 0 0 0 0 0 0 0 0 0 0.2 0"/>
<feBlend mode="normal" in2="BackgroundImageFix" result="effect1_dropShadow_3_15"/>
<feBlend mode="normal" in="SourceGraphic" in2="effect1_dropShadow_3_15" result="shape"/>
</filter>
</defs>
</svg>
